<?xml version="1.0" encoding="utf-8"?>
<!-- Generator: Adobe Illustrator 21.0.0, SVG Export Plug-In . SVG Version: 6.00 Build 0)  -->
<svg version="1.1" id="图层_1" xmlns="http://www.w3.org/2000/svg" xmlns:xlink="http://www.w3.org/1999/xlink" x="0px" y="0px"
	 viewBox="0 0 680 1030" style="enable-background:new 0 0 680 1030;" xml:space="preserve">
<style type="text/css">
	.st0{fill:#FFF7F5;}
	.st1{fill:#231815;}
	.st2{font-family:'SimHei';}
	.st3{font-size:43.5124px;}
	.st4{fill:none;}
	.st5{font-size:19.9721px;}
	.st6{font-family:'ArialMT';}
	.st7{font-size:16.6434px;}
	.st8{font-size:21.7562px;}
	.st9{fill:none;stroke:#231815;stroke-width:0.5;stroke-miterlimit:10;}
	.st10{fill:#DDBFB6;}
	.st11{fill:#8C4C16;}
	.st12{font-family:'STZhongsong';}
	.st13{font-size:30px;}
</style>
<g>
	<rect x="1" class="st0" width="680" height="1030"/>
</g>
<text transform="matrix(1 0 0 1 285.7837 264.9941)" class="st1 st2 st3">證書</text>
<rect x="21.3" y="373.3" class="st4" width="638.7" height="265.2"/>
<text transform="matrix(1 0 0 1 21.2622 390.4873)" class="st1 st2 st5">___________先生/女士，願意將代表自己一生唯一真愛的</text>
<text transform="matrix(1 0 0 1 553.9622 390.4873)" class="st1 st6 st5">CTloves </text>
<text transform="matrix(1 0 0 1 21.2622 437.2809)" class="st1 st2 st5">贈予他的真愛_________先生/女士，自協議生效之后，無論發生任</text>
<text transform="matrix(1 0 0 1 21.2622 485.2809)" class="st1 st2 st5">何變動,</text>
<text transform="matrix(1 0 0 1 97.1622 486.3873)" class="st1 st6 st5">CTloves </text>
<text transform="matrix(1 0 0 1 187.9622 485.2809)" class="st1 st2 st5">的贈送對象信息都不可有任何變動。</text>
<text transform="matrix(1 0 0 1 21.2622 582.1873)" class="st1 st6 st5">CTloves </text>
<text transform="matrix(1 0 0 1 112.0622 581.0809)" class="st1 st2 st5">編碼與先生/女生的身份證號綁定，可以隨時在</text>
<text transform="matrix(1 0 0 1 544.9622 582.1873)" class="st1 st6 st5">CTloves </text>
<text transform="matrix(1 0 0 1 21.2622 617.0809)" class="st1 st2 st5">官網查詢。</text>
<rect x="22.9" y="674.9" class="st4" width="246.6" height="307"/>
<text transform="matrix(1 0 0 1 22.856 689.1533)" class="st1 st6 st7">CTloves </text>
<text transform="matrix(1 0 0 1 88.556 688.515)" class="st1 st2 st7">編碼</text>
<text transform="matrix(1 0 0 1 22.856 709.1533)" class="st1 st6 st7">Individual serial number</text>
<text transform="matrix(1 0 0 1 22.856 788.415)" class="st1 st2 st7">產品款號</text>
<text transform="matrix(1 0 0 1 22.856 808.9533)" class="st1 st6 st7">Product style</text>
<text transform="matrix(1 0 0 1 22.856 888.215)" class="st1 st2 st7">購買日期</text>
<text transform="matrix(1 0 0 1 22.856 908.8533)" class="st1 st6 st7">Date of purchase</text>
<text transform="matrix(1 0 0 1 277.9282 298.8379)" class="st1 st6 st8">Certificate</text>
<rect x="25" y="716.5" class="st9" width="286.5" height="32.6"/>
<rect x="25" y="818.2" class="st9" width="286.5" height="32.6"/>
<rect x="25" y="918.2" class="st9" width="286.5" height="32.6"/>
<g>
	<path class="st1" d="M202.5,150.5v0.1V150.5z"/>
	<path class="st1" d="M233.3,150.6c5.8,0.9,11,3.5,14.9,7.2c0.5,1.8,0.9,3.6,1.4,5.5l0,0c-0.9,0.3-1.7,0.6-2.5,0.9
		c-2.6-6-7.6-10.5-13.7-12C233.3,151.7,233.3,151.2,233.3,150.6z"/>
	<circle class="st1" cx="379.9" cy="152.7" r="3.3"/>
	<path class="st1" d="M246.3,184.2c1.1,0.4,2.2,0.7,3.2,1.1c-0.3,1.8-0.6,3.6-0.9,5.3c-4.9,4.9-12.1,8-20,8c0,0,0,0-0.1,0
		s-0.1,0-0.2,0c-0.1,0-0.3,0-0.4,0c-0.7,0-1.3,0-1.9-0.1c-0.1,0-0.2,0-0.3,0h-0.1c-0.1,0-0.3,0-0.4,0c-0.1,0-0.1,0-0.2,0
		c-13.3-1.5-23.6-11.7-23.6-24c0-11.7,9.2-21.4,21.5-23.7c0,0.5,0,1.1,0,1.6c-8.6,2.6-14.9,11-14.9,21c0,12.1,9.1,21.8,20.4,21.8
		C236.2,195.3,242.8,190.8,246.3,184.2z"/>
	<path class="st1" d="M224,179.6c0,1.6-0.3,3.9-1.5,5.1c-1.1,1.1-3.2,1.5-4.7,1.8l0,0c0,0.4,0,0.8,0,1.2c3,0,6,0,8.9,0
		c4-0.1,7.9-0.3,11.9-0.4l0,0c0-0.4,0-0.8,0-1.2c0,0,0,0-0.1,0c-1.5-0.4-3.6-0.7-4.7-1.8c-1.2-1.2-1.5-3.5-1.5-5.1
		c0-12,0-22.5,0-34.5c0-1.2,0.8-1.8,1.9-2c0.5-0.1,7.7,0,8.3,0c6.6,0,8.7,3.1,10,7.4c0,0.1,0.1,0.2,0.2,0.3c0.4,0,0.8,0,1.1,0
		c0.1-0.1,0.1-0.2,0.1-0.4c-1.3-11.3-0.1-0.6-1.2-10.3c-0.1-0.7-0.7-1.2-1.4-1.2c-15.4,0.1-30.9,0.3-46.3,0.4
		c-0.7,0-1.3,0.5-1.4,1.2c-1.1,9.7,0.1-1-1.2,10.3c0.5,0,0.9,0,1.4,0c1.2-4.3,3.4-7.3,9.9-7.3c0.5,0,7.8-0.1,8.2,0
		c1.1,0.2,1.9,0.8,1.9,2C224,157.1,224,167.6,224,179.6z"/>
	<path class="st1" d="M434.7,157.7c0,8.3,0,16.7,0,25c0,1.6-3.2,1.7-4.4,1.7c0,0.4,0,0.8,0,1.2c2,0,3.9,0,5.9,0c5.9,0,11.9,0,17.9,0
		c0-2.1,0-4.2,0-6.3c-0.1,0-0.2,0-0.3,0c-0.1,1.7-1.2,5.4-2.7,5.4c-4.5,0-8.9,0-13.4,0c0-0.6,0-1.1,0-1.7c0-1,0-1.9,0-2.9
		c0-1.8,0-3.6,0-5.5c0-1.3,0-2.7,0-4c4.2,0,8.4,0,12.6,0c1.5,0,2.6,3.7,2.7,5.4c0.1,0,0.2,0,0.3,0c0-1.8,0-3.6,0-5.4
		c0-0.3,0-0.6,0-0.9c0-1.8,0-3.6,0-5.4c-0.1,0-0.2,0-0.3,0c-0.1,1.7-1.2,5.4-2.7,5.4c-4.2,0-8.4,0-12.6,0c0-1.8,0-3.6,0-5.4
		c0-1.4,0-2.7,0-4.1c0-1,0-1.9,0-2.9c0-0.6,0-1.1,0-1.7c4.5,0,8.9,0,13.4,0c1.5,0,2.6,3.7,2.7,5.4c0.1,0,0.2,0,0.3,0
		c0-2.1,0-4.2,0-6.3c-6,0-11.9,0-17.9,0c-2,0-3.9,0-5.9,0c0,0.4,0,0.8,0,1.2C431.5,156,434.7,156,434.7,157.7z"/>
	<path class="st1" d="M478.6,156.7c-1.3-0.5-3.4-1.2-4.6-1.5c-1.4-0.3-2.8-0.5-4.2-0.5c-2.9,0-5.8,0.6-8.1,2.5
		c-1.9,1.7-2.8,3.8-2.8,6.4v0.1c0,0,0,0,0,0.1c0,0,0,0,0,0.1c0,1.3,0.2,2.6,0.9,3.7c0.6,1,1.4,1.7,2.5,2.2c1.6,0.7,4.7,1,6.5,1.1
		c2.7,0.2,6,0.4,7.6,3c0.6,1,0.8,2.7,0.8,3.8c0,4.7-2.8,7.4-7.7,7.5c-2.4,0.1-6.7-1.2-8.2-2.5c-0.5-0.3-1-0.8-1.2-1.3
		c-0.5-1.1-0.7-1.6-0.7-3.6c-0.2,0-0.3,0-0.5,0c0,1.9,0,3.9,0,5.8c2.2,0.8,6.6,2.2,9.6,2.2c7,0,11.3-2.6,11.3-8.9
		c0-5.7-3.8-7.9-8.9-8.4c-1.7-0.2-4.4-0.4-6-1c-1-0.4-1.9-1.1-2.5-2c-0.7-1-0.9-2.1-0.9-3.3c0-2,0.7-3.7,2.2-5
		c1.6-1.4,3.7-1.9,5.8-1.9c1.4,0,2.9,0.2,4.2,0.7c1.3,0.4,2.7,1.3,3.5,2.5c0.6,0.9,1,1.9,1.1,3.3c0.1,0,0.2,0,0.3,0
		C478.6,160.2,478.6,158.5,478.6,156.7z"/>
	<path class="st1" d="M344.4,185.6c-1.4,0-2.7,0-4.1,0c0-0.3,0-0.6,0-0.9c1.9,0,2.6-0.5,2.6-1.4c0-8.5,0-17.1,0-25.6
		c0-1.7-3.2-1.7-4.4-1.7c0-0.4,0-0.8,0-1.2c2,0,3.9,0,5.9,0s3.9,0,5.9,0c0,0.4,0,0.8,0,1.2c-1.2,0-4.4,0-4.4,1.7c0,7.5,0,15,0,22.4
		c0,1.4,0,2.8,0,4.3c0,0.1,0,0.2,0,0.3c4.4,0,8.7,0,13.1,0c1.5,0,2.6-3.7,2.7-5.4c0.1,0,0.2,0,0.3,0c0,2.1,0,4.2,0,6.3
		C356.1,185.6,350.2,185.6,344.4,185.6z"/>
	<path class="st1" d="M376.7,155.1c-6.9,1.5-12.2,7.7-12.2,15.1c0,8.5,6.9,15.4,15.4,15.4s15.4-6.9,15.4-15.4
		c0-7.4-5.2-13.6-12.2-15.1c-0.1,0.2-0.3,0.3-0.4,0.5c5.2,1.6,9.1,7.5,9.1,14.6c0,8.3-5.3,15-11.9,15s-11.9-6.7-11.9-15
		c0-7.1,3.9-13,9.1-14.6C377,155.5,376.8,155.3,376.7,155.1z"/>
	<path class="st1" d="M319.8,154.8c-4,0-8.1,0-12.1,0c0,2.1,0,4.2,0,6.3c0.1,0,0.1,0,0.2,0c0.1-0.8,0.2-1.6,0.3-2.4
		c0.1-0.8,0.2-2.1,1.1-2.4c0.6-0.3,3-0.3,4.6-0.3c0,0,0,0,0.1,0c1.5,0,2.9,0,4.4,0c0,9,0,18,0,27c0,1.7-3.2,1.7-4.4,1.7
		c0,0.3,0,0.6,0,0.9c2,0,3.9,0,5.9,0s3.9,0,5.9,0c0-0.3,0-0.6,0-0.9c-1.2,0-4.4,0-4.4-1.7c0-9,0-18,0-27c1.5,0,2.9,0,4.4,0
		c0,0,0,0,0.1,0c1.7,0,4.1,0,4.6,0.3c0.8,0.4,1,1.6,1,2.4c0.1,0.8,0.2,1.6,0.3,2.4c0.1,0,0.1,0,0.2,0c0-2.1,0-4.2,0-6.3
		C327.8,154.8,323.8,154.8,319.8,154.8z"/>
	<path class="st1" d="M302.7,162c0.1,0,0.2,0,0.3,0.1c0-1.3,0-2.6,0-3.8c0-0.3,0-0.5,0-0.8c0-0.4,0-0.8,0-1.1
		c-0.8-0.2-1.6-0.4-2.5-0.5c-2.3-0.6-4.7-1-7-1c-3.2,0-6.6,0.5-9.6,1.9c-2.5,1.2-4.5,3-5.9,5.4c-1.5,2.4-2.1,5.1-2.1,7.9
		c0,2.8,0.6,5.5,2.1,7.9c1.4,2.4,3.5,4.2,6,5.5c2.8,1.4,6,2,9.1,2c1.7,0,3.4-0.2,5-0.6c1.7-0.4,3.2-1,4.8-1.8c0-0.1,0.1-0.2,0.1-0.3
		c0-0.2,0-0.3,0-0.5c-1.1,0.6-2.2,1.2-3.4,1.4c-1.9,0.5-3.9,0.7-5.9,0.7c-2.6,0-5-0.7-7.3-2s-4.1-3.1-5.3-5.4
		c-1.3-2.4-1.9-5-1.9-7.7c0-3.8,1-7.2,3.7-9.9s6.1-3.7,9.8-3.7c1.6,0,3.1,0.2,4.6,0.7c1.5,0.4,2.9,1.1,4.2,2
		c0.1,0.1,0.2,0.1,0.2,0.2C302.1,159.5,302.4,160.8,302.7,162z"/>
	<path class="st1" d="M409.4,185.2c0.5,0,0.9,0,1.4,0c10.1-25.5,0,0,10.1-25.5c0.3-0.8,1.2-2.5,1.8-3.1c0.5-0.5,1.2-0.7,1.9-0.7
		c0.1,0,0.2,0,0.3,0c0-0.4,0-0.7,0-1.1c-2.8,0-5.6,0-8.5,0c0,0.4,0,0.8,0,1.2c0.4,0,0.9,0.1,1.3,0.1c0.3,0,0.6,0,0.9,0.1
		c1,0,1.8,0.1,1.8,1.1c0,1.6-2.3,7.2-2.9,8.7c-2.1,5.2-4.2,10.4-6.3,15.6c-2.1-5.4-4.3-10.9-6.4-16.3c-0.9-2.5-1.9-5-2.8-7.5
		c-0.1-0.3-0.1-0.1-0.1-0.4c0-0.5,0.2-0.9,0.6-1.1c0.4-0.3,1.2-0.3,1.7-0.3s1,0,1.6,0c0-0.4,0-0.8,0-1.2c-3.5,0-7.1,0-10.6,0
		c0,0.3,0,0.7,0,1c0.1,0,0.2,0,0.3,0c0.7,0,1.9,0,2.3,0.6c0.6,0.8,1.7,3.3,2,4.3C403.8,171,399.5,160.1,409.4,185.2z"/>
</g>
<rect x="1" y="1" class="st10" width="680" height="87"/>
<text transform="matrix(1 0 0 1 172.2354 60.6768)" class="st11 st12 st13">一生最神圣的契约在此生效</text>
<g>
	<line class="st4" x1="172" y1="75.5" x2="539" y2="75.5"/>
	<g>
		<path class="st11" d="M172,77c12.2,0,24.3,0,36.5,0c29.2,0,58.4,0,87.6,0c35.3,0,70.7,0,106,0c30.6,0,61.1,0,91.7,0
			c10.1,0,20.2,0,30.4,0c4.5,0,9.8,0.8,14.3,0c0.2,0,0.4,0,0.7,0c1.9,0,1.9-3,0-3c-12.2,0-24.3,0-36.5,0c-29.2,0-58.4,0-87.6,0
			c-35.3,0-70.7,0-106,0c-30.6,0-61.1,0-91.7,0c-10.1,0-20.2,0-30.4,0c-4.5,0-9.8-0.8-14.3,0c-0.2,0-0.4,0-0.7,0
			C170.1,74,170.1,77,172,77L172,77z"/>
	</g>
</g>
</svg>
