<?xml version="1.0" encoding="utf-8"?>
<!-- Generator: Adobe Illustrator 21.0.0, SVG Export Plug-In . SVG Version: 6.00 Build 0)  -->
<svg version="1.1" id="图层_1" xmlns="http://www.w3.org/2000/svg" xmlns:xlink="http://www.w3.org/1999/xlink" x="0px" y="0px"
	 viewBox="0 0 450 120" style="enable-background:new 0 0 450 120;" xml:space="preserve">
<style type="text/css">
	.st0{fill-rule:evenodd;clip-rule:evenodd;fill:#C39C36;}
</style>
<g>
	<path class="st0" d="M8.6,32.1c0,0.1,0,0.1,0,0.2C8.6,32.2,8.6,32.2,8.6,32.1z"/>
	<path class="st0" d="M57,32.4c9.2,1.4,17.3,5.5,23.4,11.3c0.7,2.9,1.4,5.7,2.1,8.6c0,0,0,0,0,0c-1.3,0.5-2.7,0.9-4,1.4
		c-4.1-9.4-12-16.4-21.5-18.9C57,34,57,33.2,57,32.4z"/>
	<circle class="st0" cx="287.2" cy="35.6" r="5.2"/>
	<path class="st0" d="M77.4,85c1.7,0.6,3.4,1.1,5.1,1.7c-0.4,2.8-0.9,5.6-1.3,8.4c-7.7,7.7-19,12.6-31.5,12.6c0,0-0.1,0-0.1,0
		c-0.1,0-0.2,0-0.3,0c-0.2,0-0.4,0-0.6,0c-1,0-2-0.1-3.1-0.2c-0.1,0-0.3,0-0.4,0c-0.1,0-0.1,0-0.2,0c-0.2,0-0.4,0-0.6-0.1
		c-0.1,0-0.2,0-0.3,0c-20.9-2.4-37-18.3-37-37.7c0-18.3,14.5-33.6,33.8-37.2c0,0.9,0,1.7,0,2.6c-13.5,4-23.3,17.3-23.3,33
		c0,18.9,14.3,34.3,32,34.3C61.5,102.4,71.9,95.4,77.4,85z"/>
	<path class="st0" d="M42.4,77.9c0,2.6-0.4,6.1-2.3,8.1c-1.8,1.8-5,2.3-7.4,2.9c0,0,0,0-0.1,0c0,0.6,0,1.3,0,1.9c4.7,0,9.3,0,14,0
		c6.2-0.2,12.5-0.4,18.7-0.6c0,0,0,0,0,0c0-0.6,0-1.3,0-1.9c0,0-0.1,0-0.1,0c-2.4-0.7-5.6-1.1-7.4-2.9c-1.9-1.9-2.3-5.5-2.3-8.1
		c0-18.8,0-35.3,0-54.1c0-1.9,1.3-2.9,3-3.1c0.7-0.2,12.1,0,13,0c10.3,0,13.7,4.9,15.6,11.7c0.1,0.2,0.1,0.3,0.2,0.4
		c0.6,0,1.2,0,1.8,0c0.1-0.2,0.2-0.4,0.2-0.6c-2.1-17.8-0.1-1-1.9-16.2c-0.1-1.1-1.1-1.9-2.1-1.9c-24.2,0.2-48.5,0.4-72.7,0.6
		c-1.1,0-2,0.8-2.1,1.9c-1.8,15.2,0.2-1.6-1.9,16.2c0.7,0,1.5,0,2.2,0c1.9-6.7,5.4-11.5,15.6-11.5c0.8,0,12.2-0.2,12.9,0
		c1.8,0.2,3,1.2,3,3.1C42.4,42.6,42.4,59,42.4,77.9z"/>
	<path class="st0" d="M373.2,43.5c0,13.1,0,26.2,0,39.2c0,2.6-5.1,2.6-7,2.6c0,0.6,0,1.3,0,1.9c3.1,0,6.2,0,9.3,0c9.3,0,18.7,0,28,0
		c0-3.3,0-6.6,0-9.9c-0.2,0-0.3,0-0.5,0c-0.1,2.7-1.8,8.5-4.2,8.5c-7,0-14,0-21,0c0-0.9,0-1.7,0-2.6c0-1.5,0-3.1,0-4.6
		c0-2.9,0-5.7,0-8.6c0-2.1,0-4.2,0-6.3c6.6,0,13.2,0,19.8,0c2.4,0,4.1,5.8,4.2,8.5c0.2,0,0.3,0,0.5,0c0-2.8,0-5.7,0-8.5
		c0-0.5,0-0.9,0-1.4c0-2.8,0-5.7,0-8.5c-0.2,0-0.3,0-0.5,0c-0.1,2.7-1.8,8.5-4.2,8.5c-6.6,0-13.2,0-19.8,0c0-2.8,0-5.6,0-8.4
		c0-2.2,0-4.3,0-6.5c0-1.5,0-3.1,0-4.6c0-0.9,0-1.7,0-2.6c7,0,14,0,21,0c2.4,0,4.1,5.8,4.2,8.5c0.2,0,0.3,0,0.5,0c0-3.3,0-6.6,0-9.9
		c-9.3,0-18.7,0-28,0c-3.1,0-6.2,0-9.3,0c0,0.6,0,1.3,0,1.9C368.1,40.8,373.2,40.9,373.2,43.5z"/>
	<path class="st0" d="M442.1,41.9c-2.1-0.8-5.4-1.9-7.2-2.3c-2.2-0.5-4.4-0.7-6.6-0.7c-4.5,0-9.2,0.9-12.7,4c-3,2.7-4.4,6-4.5,10
		c0,0.1,0,0.1,0,0.2c0,0,0,0.1,0,0.1c0,0,0,0.1,0,0.1c0,2,0.4,4.1,1.4,5.9c0.9,1.6,2.2,2.7,3.9,3.5c2.5,1.1,7.4,1.5,10.1,1.8
		c4.3,0.4,9.4,0.6,12,4.6c1,1.5,1.3,4.2,1.3,6c0,7.3-4.5,11.6-12.1,11.8c-3.8,0.1-10.5-1.8-12.8-3.9c-0.7-0.5-1.5-1.2-1.9-2.1
		c-0.7-1.7-1.1-2.6-1.1-5.6c-0.3,0-0.5,0-0.8,0c0,3,0,6.1,0,9.1c3.4,1.2,10.4,3.5,15.1,3.5c10.9,0,17.7-4.1,17.7-14
		c0-9-6-12.4-14-13.2c-2.6-0.2-7-0.6-9.4-1.6c-1.6-0.7-2.9-1.7-3.9-3.2c-1-1.6-1.4-3.3-1.4-5.2c0-3.1,1.1-5.7,3.4-7.8
		c2.5-2.2,5.9-3,9.2-3c2.3,0,4.5,0.4,6.7,1.1c2,0.7,4.2,2,5.4,4c0.9,1.4,1.6,3,1.7,5.1c0.2,0,0.3,0,0.5,0
		C442.1,47.4,442.1,44.7,442.1,41.9z"/>
	<path class="st0" d="M231.4,87.3c-2.2,0-4.3,0-6.5,0c0-0.5,0-0.9,0-1.4c3,0,4.2-0.8,4.2-2.2c0-13.4,0-26.8,0-40.2
		c0-2.6-5.1-2.6-7-2.6c0-0.6,0-1.3,0-1.9c3.1,0,6.2,0,9.3,0c3.1,0,6.2,0,9.3,0c0,0.6,0,1.3,0,1.9c-1.9,0-7,0-7,2.6
		c0,11.7,0,23.5,0,35.2c0,2.2,0,4.5,0,6.7c0,0.2,0,0.3,0,0.5c6.9,0,13.7,0,20.6,0c2.4,0,4.1-5.8,4.2-8.5c0.2,0,0.3,0,0.5,0
		c0,3.3,0,6.6,0,9.9C249.8,87.3,240.6,87.3,231.4,87.3z"/>
	<path class="st0" d="M282.1,39.4c-10.9,2.3-19.1,12-19.1,23.6c0,13.3,10.8,24.2,24.2,24.2c13.3,0,24.2-10.8,24.2-24.2
		c0-11.6-8.2-21.3-19.1-23.6c-0.2,0.3-0.4,0.5-0.7,0.8c8.2,2.5,14.3,11.8,14.3,22.8c0,13-8.4,23.5-18.7,23.5
		c-10.3,0-18.7-10.5-18.7-23.5c0-11.1,6.1-20.4,14.3-22.8C282.6,40,282.3,39.7,282.1,39.4z"/>
	<path class="st0" d="M192.8,38.9c-6.3,0-12.7,0-19,0c0,3.3,0,6.6,0,9.9c0.1,0,0.2,0,0.4,0c0.1-1.2,0.3-2.5,0.4-3.7
		c0.1-1.2,0.4-3.2,1.7-3.8c0.9-0.4,4.6-0.5,7.3-0.5c0,0,0.1,0,0.1,0c2.3,0,4.6,0,6.9,0c0,14.1,0,28.3,0,42.4c0,2.6-5.1,2.6-7,2.6
		c0,0.5,0,0.9,0,1.4c3.1,0,6.2,0,9.3,0c3.1,0,6.2,0,9.3,0c0-0.5,0-0.9,0-1.4c-1.9,0-7,0-7-2.6c0-14.1,0-28.3,0-42.4
		c2.3,0,4.6,0,6.9,0c0,0,0.1,0,0.1,0c2.6,0,6.4,0.1,7.3,0.5c1.3,0.6,1.5,2.6,1.6,3.8c0.1,1.2,0.3,2.5,0.4,3.7c0.1,0,0.2,0,0.4,0
		c0-3.3,0-6.6,0-9.9C205.5,38.9,199.1,38.9,192.8,38.9z"/>
	<path class="st0" d="M166,50.2c0.2,0,0.3,0.1,0.5,0.1c0-2,0-4,0-6c0-0.4,0-0.8,0-1.2c0-0.6,0-1.2,0-1.8c-1.3-0.3-2.6-0.6-3.9-0.9
		c-3.6-0.9-7.3-1.5-11-1.5c-5.1,0-10.4,0.7-15,3c-3.9,1.9-7.1,4.7-9.3,8.4c-2.3,3.8-3.3,8-3.3,12.4c0,4.4,1,8.6,3.3,12.4
		c2.3,3.8,5.5,6.6,9.4,8.6c4.4,2.3,9.3,3.1,14.3,3.1c2.7,0,5.3-0.3,7.9-1c2.6-0.7,5.1-1.6,7.5-2.8c0.1-0.2,0.1-0.3,0.2-0.5
		c0-0.3,0-0.5,0-0.8c-1.6,1-3.4,1.8-5.3,2.3c-3,0.7-6.1,1.1-9.2,1.1c-4.1,0-7.9-1.1-11.4-3.1c-3.6-2.1-6.4-4.9-8.3-8.5
		c-2-3.8-2.9-7.9-2.9-12.1c0-5.9,1.6-11.4,5.8-15.6c4.2-4.2,9.5-5.9,15.4-5.9c2.4,0,4.8,0.3,7.2,1c2.3,0.7,4.6,1.8,6.6,3.1
		c0.1,0.1,0.3,0.2,0.4,0.3C165,46.3,165.5,48.3,166,50.2z"/>
	<path class="st0" d="M333.5,86.7c0.7,0,1.4,0,2.1,0c15.9-40.1,0,0,15.9-40.1c0.5-1.3,1.9-3.9,2.8-4.9c0.8-0.8,1.9-1.1,3-1.1
		c0.1,0,0.3,0,0.4,0c0-0.6,0-1.1,0-1.7c-4.4,0-8.9,0-13.3,0c0,0.6,0,1.2,0,1.8c0.7,0.1,1.4,0.1,2.1,0.2c0.5,0,0.9,0.1,1.4,0.1
		c1.6,0.1,2.8,0.1,2.8,1.8c0,2.5-3.6,11.2-4.6,13.7c-3.3,8.2-6.6,16.4-9.8,24.6c-3.4-8.5-6.7-17.1-10-25.6c-1.5-3.9-3-7.8-4.4-11.7
		c-0.1-0.4-0.2-0.2-0.2-0.6c0-0.7,0.3-1.4,0.9-1.8c0.7-0.4,1.9-0.5,2.7-0.5c0.8,0,1.6,0,2.4,0c0-0.6,0-1.3,0-1.9
		c-5.6,0-11.1,0-16.7,0c0,0.5,0,1.1,0,1.6c0.2,0,0.3,0,0.5,0c1.1,0,3,0,3.7,1c0.9,1.2,2.6,5.3,3.2,6.7
		C324.7,64.3,318,47.2,333.5,86.7z"/>
</g>
</svg>
